<svg xmlns="http://www.w3.org/2000/svg" xmlns:xlink="http://www.w3.org/1999/xlink" viewBox="0 0 1250.74 800"><defs><style>.cls-1{isolation:isolate;}.cls-15,.cls-16,.cls-17,.cls-18,.cls-19,.cls-2,.cls-20,.cls-21,.cls-22,.cls-23,.cls-24,.cls-25,.cls-26,.cls-4,.cls-5{mix-blend-mode:multiply;}.cls-2{fill:url(#linear-gradient);}.cls-3{fill:#ff494e;}.cls-4{fill:url(#linear-gradient-2);}.cls-5{fill:url(#linear-gradient-3);}.cls-6{fill:#ff6c35;}.cls-7{fill:#d3582d;}.cls-8{fill:#fac932;}.cls-9{fill:#f5b02e;}.cls-10{fill:#00a58f;}.cls-11{fill:#008a7d;}.cls-12{fill:#009fc4;}.cls-13{fill:#288bbe;}.cls-14{fill:#d3353a;}.cls-15{fill:url(#linear-gradient-4);}.cls-16{fill:url(#linear-gradient-5);}.cls-17{fill:url(#linear-gradient-6);}.cls-18{fill:url(#linear-gradient-7);}.cls-19{fill:url(#linear-gradient-8);}.cls-20{fill:url(#linear-gradient-9);}.cls-21{fill:url(#linear-gradient-10);}.cls-22{fill:url(#linear-gradient-11);}.cls-23{fill:url(#linear-gradient-12);}.cls-24{fill:url(#linear-gradient-13);}.cls-25{fill:url(#linear-gradient-14);}.cls-26{fill:url(#linear-gradient-15);}</style><linearGradient id="linear-gradient" x1="3871.7" y1="-1176.54" x2="3924.55" y2="-1176.54" gradientTransform="translate(-1034.33 85.35) rotate(45) scale(0.5 1)" gradientUnits="userSpaceOnUse"><stop offset="0" stop-color="#fff"/><stop offset="1" stop-color="#bbbcbf"/></linearGradient><linearGradient id="linear-gradient-2" x1="2999.63" y1="-1036.72" x2="3052.49" y2="-1036.72" gradientTransform="translate(-1094.35 313.53) rotate(45) scale(0.5 1)" xlink:href="#linear-gradient"/><linearGradient id="linear-gradient-3" x1="3448.85" y1="-1335.14" x2="3501.7" y2="-1335.14" xlink:href="#linear-gradient"/><linearGradient id="linear-gradient-4" x1="-367.38" y1="1465.17" x2="-314.51" y2="1465.17" gradientTransform="translate(1535.62 -1057.65)" xlink:href="#linear-gradient"/><linearGradient id="linear-gradient-5" x1="-986.97" y1="-2365.78" x2="-934.11" y2="-2365.78" gradientTransform="translate(2117.83 3109.68)" xlink:href="#linear-gradient"/><linearGradient id="linear-gradient-6" x1="-2548.63" y1="-484.87" x2="-2495.76" y2="-484.87" gradientTransform="translate(3529.95 1191.41)" xlink:href="#linear-gradient"/><linearGradient id="linear-gradient-7" x1="-1292.5" y1="-2274.84" x2="-1239.64" y2="-2274.84" gradientTransform="translate(2124.31 2869.23)" xlink:href="#linear-gradient"/><linearGradient id="linear-gradient-8" x1="-1081.04" y1="-2274.84" x2="-1028.18" y2="-2274.84" gradientTransform="translate(1763.33 3018.75)" xlink:href="#linear-gradient"/><linearGradient id="linear-gradient-9" x1="-3873.2" y1="-1671.4" x2="-3802.37" y2="-1671.4" gradientTransform="translate(-12.4 -2376.1) rotate(-135) scale(0.5 1)" xlink:href="#linear-gradient"/><linearGradient id="linear-gradient-10" x1="-4536.05" y1="-1231.65" x2="-4465.22" y2="-1231.65" gradientTransform="translate(2764.03 1444.52) scale(0.5 1)" xlink:href="#linear-gradient"/><linearGradient id="linear-gradient-11" x1="-4819.36" y1="-930.59" x2="-4748.53" y2="-930.59" gradientTransform="translate(-207.11 -2249.44) rotate(-135) scale(0.5 1)" xlink:href="#linear-gradient"/><linearGradient id="linear-gradient-12" x1="-897.56" y1="473.93" x2="-826.72" y2="473.93" gradientTransform="translate(987.36 -398.79)" xlink:href="#linear-gradient"/><linearGradient id="linear-gradient-13" x1="-614.21" y1="757.28" x2="-543.37" y2="757.28" gradientTransform="translate(1104.73 -682.14)" xlink:href="#linear-gradient"/><linearGradient id="linear-gradient-14" x1="-472.53" y1="898.95" x2="-401.7" y2="898.95" gradientTransform="translate(1163.41 -823.81)" xlink:href="#linear-gradient"/><linearGradient id="linear-gradient-15" x1="1152.03" y1="-1206.46" x2="1222.87" y2="-1206.46" gradientTransform="translate(-861.85 1331.68)" xlink:href="#linear-gradient"/></defs><g class="cls-1"><g id="Object"><polygon class="cls-2" points="1101.22 725.24 1082.53 706.55 1250.74 538.34 1250.74 575.72 1101.22 725.24"/><polygon class="cls-3" points="577.9 800 652.66 725.24 727.42 800 577.9 800"/><polygon class="cls-4" points="577.9 800 540.52 800 858.25 482.27 876.94 500.96 577.9 800"/><polygon class="cls-5" points="1026.46 500.96 1007.77 482.27 1250.74 239.3 1250.74 276.68 1026.46 500.96"/><rect class="cls-6" x="824.08" y="522.86" width="105.73" height="105.73" transform="translate(663.95 -451.47) rotate(45)"/><rect class="cls-7" x="898.84" y="597.62" width="105.73" height="105.73" transform="translate(738.71 -482.44) rotate(45)"/><rect class="cls-8" x="1123.12" y="672.38" width="105.73" height="105.73" transform="translate(-168.38 1043.96) rotate(-45)"/><polygon class="cls-9" points="1250.74 725.24 1175.98 650.48 1250.74 575.72 1250.74 725.24"/><polygon class="cls-10" points="1101.22 725.24 1175.98 800 1026.46 800 1101.22 725.24"/><rect class="cls-11" x="973.6" y="672.38" width="105.73" height="105.73" transform="translate(1239.46 1963.88) rotate(-135)"/><rect class="cls-12" x="674.56" y="672.38" width="105.73" height="105.73" transform="translate(-299.76 726.78) rotate(-45)"/><rect class="cls-13" x="749.32" y="597.62" width="105.73" height="105.73" transform="translate(-225 757.75) rotate(-45)"/><rect class="cls-3" x="1048.36" y="448.1" width="105.73" height="105.73" transform="translate(-31.69 925.41) rotate(-45)"/><rect class="cls-14" x="1123.12" y="373.34" width="105.73" height="105.73" transform="translate(43.07 956.38) rotate(-45)"/><polygon class="cls-8" points="1250.74 426.2 1175.98 351.44 1250.74 276.68 1250.74 426.2"/><rect class="cls-15" x="1168.24" y="354.65" width="52.86" height="105.73" transform="translate(61.76 964.12) rotate(-45)"/><rect class="cls-16" x="1130.86" y="691.07" width="52.86" height="105.73" transform="translate(2501.66 451.64) rotate(135)"/><rect class="cls-17" x="981.34" y="653.69" width="52.86" height="105.73" transform="translate(1220.77 1918.76) rotate(-135)"/><rect class="cls-18" x="831.82" y="541.55" width="52.86" height="105.73" transform="translate(1885.44 407.84) rotate(135)"/><rect class="cls-19" x="682.3" y="691.07" width="52.86" height="105.73" transform="translate(1735.92 768.82) rotate(135)"/><polygon class="cls-20" points="300.54 0 350.63 0 0 350.63 0 300.54 300.54 0"/><polygon class="cls-13" points="701.25 2.78 901.61 2.78 801.43 102.96 701.25 2.78"/><rect class="cls-21" x="495.71" y="71.21" width="35.42" height="283.35" transform="translate(725.93 726.45) rotate(-135)"/><polygon class="cls-22" points="901.61 0 951.7 0 726.3 225.4 701.25 200.36 901.61 0"/><polygon class="cls-3" points="200.36 100.18 100.18 0 300.54 0 200.36 100.18"/><rect class="cls-14" x="229.7" y="29.34" width="141.67" height="141.67" transform="translate(158.86 -183.17) rotate(45)"/><polygon class="cls-6" points="601.08 100.18 500.9 0 701.25 0 601.08 100.18"/><rect class="cls-7" x="630.42" y="29.34" width="141.67" height="141.67" transform="translate(276.23 -466.52) rotate(45)"/><rect class="cls-10" x="430.06" y="29.34" width="141.67" height="141.67" transform="translate(925.92 -183.17) rotate(135)"/><rect class="cls-11" x="329.88" y="129.52" width="141.67" height="141.67" transform="translate(825.74 58.68) rotate(135)"/><polygon class="cls-9" points="100.18 200.36 0 300.54 0 100.18 100.18 200.36"/><rect class="cls-8" x="29.34" y="29.34" width="141.67" height="141.67" transform="translate(-41.5 100.18) rotate(-45)"/><rect class="cls-23" x="89.81" y="4.3" width="70.84" height="141.67" transform="translate(-16.45 110.55) rotate(-45)"/><rect class="cls-24" x="490.52" y="4.3" width="70.84" height="141.67" transform="translate(100.92 393.9) rotate(-45)"/><rect class="cls-25" x="690.88" y="4.3" width="70.84" height="141.67" transform="translate(159.6 535.58) rotate(-45)"/><rect class="cls-26" x="290.16" y="54.39" width="70.84" height="141.67" transform="translate(183.91 -193.54) rotate(45)"/></g></g></svg>