<svg xmlns="http://www.w3.org/2000/svg" xmlns:xlink="http://www.w3.org/1999/xlink" viewBox="0 0 3520.96 2395"><defs><style>.cls-1{fill:url(#linear-gradient);}.cls-2{isolation:isolate;}.cls-18,.cls-19,.cls-20,.cls-21,.cls-22,.cls-23,.cls-24,.cls-25,.cls-26,.cls-27,.cls-28,.cls-29,.cls-3,.cls-30,.cls-5,.cls-7,.cls-8{mix-blend-mode:multiply;}.cls-4{clip-path:url(#clip-path);}.cls-5{fill:url(#linear-gradient-3);}.cls-6{fill:#f04e57;}.cls-7{fill:url(#linear-gradient-4);}.cls-8{fill:url(#linear-gradient-5);}.cls-9{fill:#f36c42;}.cls-10{fill:#f15928;}.cls-11{fill:#ffc821;}.cls-12{fill:#fbae26;}.cls-13{fill:#00a890;}.cls-14{fill:#008d7e;}.cls-15{fill:#00a0c7;}.cls-16{fill:#008dc2;}.cls-17{fill:#ef383b;}.cls-18{fill:url(#linear-gradient-6);}.cls-19{fill:url(#linear-gradient-7);}.cls-20{fill:url(#linear-gradient-8);}.cls-21{fill:url(#linear-gradient-9);}.cls-22{fill:url(#linear-gradient-10);}.cls-23{fill:url(#linear-gradient-11);}.cls-24{fill:url(#linear-gradient-12);}.cls-25{fill:url(#linear-gradient-13);}.cls-26{fill:url(#linear-gradient-14);}.cls-27{fill:url(#linear-gradient-15);}.cls-28{fill:url(#linear-gradient-16);}.cls-29{fill:url(#linear-gradient-17);}.cls-30{fill:url(#linear-gradient-18);}</style><linearGradient id="linear-gradient" x1="1029.92" y1="1825.18" x2="3027.54" y2="1825.18" gradientUnits="userSpaceOnUse"><stop offset="0" stop-color="#fff"/><stop offset="1" stop-color="#bdbec1"/></linearGradient><clipPath id="clip-path" transform="translate(-179.9 -531.04)"><circle class="cls-1" cx="2028.73" cy="1825.18" r="998.81"/></clipPath><linearGradient id="linear-gradient-3" x1="5237.33" y1="-743.99" x2="5354.86" y2="-743.99" gradientTransform="matrix(0.29, -0.4, 0.81, 0.59, -67.9, 3637.15)" xlink:href="#linear-gradient"/><linearGradient id="linear-gradient-4" x1="3589.18" y1="-183.73" x2="3706.71" y2="-183.73" gradientTransform="matrix(0.29, -0.4, 0.81, 0.59, 166.85, 3660.84)" xlink:href="#linear-gradient"/><linearGradient id="linear-gradient-5" x1="4297.09" y1="-1096.63" x2="4414.62" y2="-1096.63" gradientTransform="matrix(0.29, -0.4, 0.81, 0.59, -67.9, 3637.15)" xlink:href="#linear-gradient"/><linearGradient id="linear-gradient-6" x1="2352.95" y1="2898.78" x2="2470.49" y2="2898.78" gradientTransform="translate(-1842.89 -1273.3)" xlink:href="#linear-gradient"/><linearGradient id="linear-gradient-7" x1="-698.57" y1="-858.12" x2="-581.02" y2="-858.12" gradientTransform="translate(1960.46 2448.95)" xlink:href="#linear-gradient"/><linearGradient id="linear-gradient-8" x1="-1136.6" y1="2072.36" x2="-1019.05" y2="2072.36" gradientTransform="translate(2368.26 -140.13)" xlink:href="#linear-gradient"/><linearGradient id="linear-gradient-9" x1="-874.73" y1="-379.09" x2="-757.18" y2="-379.09" gradientTransform="translate(1911.96 2678.6)" xlink:href="#linear-gradient"/><linearGradient id="linear-gradient-10" x1="-404.54" y1="-379.09" x2="-286.99" y2="-379.09" gradientTransform="translate(1822.04 2955.13)" xlink:href="#linear-gradient"/><linearGradient id="linear-gradient-11" x1="2851" y1="264.07" x2="2924.89" y2="264.07" gradientTransform="matrix(-0.43, -0.25, -0.5, 0.87, 3989.03, 1604.84)" xlink:href="#linear-gradient"/><linearGradient id="linear-gradient-12" x1="1726.46" y1="540.66" x2="1800.36" y2="540.66" gradientTransform="matrix(-0.43, -0.25, -0.5, 0.87, 3784.62, 1722.68)" xlink:href="#linear-gradient"/><linearGradient id="linear-gradient-13" x1="2259.83" y1="42.35" x2="2333.73" y2="42.35" gradientTransform="matrix(-0.43, -0.25, -0.5, 0.87, 3989.03, 1604.84)" xlink:href="#linear-gradient"/><linearGradient id="linear-gradient-14" x1="1224.88" y1="1814.55" x2="1298.78" y2="1814.55" gradientTransform="matrix(1, 0, 0, -1, 1818.15, 3354.93)" xlink:href="#linear-gradient"/><linearGradient id="linear-gradient-15" x1="254.94" y1="400.68" x2="328.85" y2="400.68" gradientTransform="matrix(1, 0, 0, -1, 2347.98, 2115.02)" xlink:href="#linear-gradient"/><linearGradient id="linear-gradient-16" x1="34.91" y1="1206.14" x2="108.82" y2="1206.14" gradientTransform="matrix(1, 0, 0, -1, 2673.33, 3108.44)" xlink:href="#linear-gradient"/><linearGradient id="linear-gradient-17" x1="-8.5" y1="617.86" x2="65.4" y2="617.86" gradientTransform="matrix(1, 0, 0, -1, 2922.92, 2680.7)" xlink:href="#linear-gradient"/><linearGradient id="linear-gradient-18" x1="287.12" y1="617.86" x2="361.03" y2="617.86" gradientTransform="matrix(1, 0, 0, -1, 2480.5, 2937.29)" xlink:href="#linear-gradient"/></defs><g class="cls-2"><g id="Layer_1" data-name="Layer 1"><g class="cls-3"><circle class="cls-1" cx="1848.83" cy="1294.13" r="998.81"/><g class="cls-4"><image width="612" height="408" transform="translate(19.8) scale(5.72)" xlink:href="../../../../../Pictures/foto-removebg-preview-removebg-preview.png"/></g></g><polygon class="cls-5" points="1119.17 1189.44 1084.6 1236.97 656.8 925.88 738.9 912.91 1119.17 1189.44"/><polygon class="cls-6" points="1464.91 2312.9 1274.78 2174.63 1413.04 1984.5 1464.91 2312.9"/><polygon class="cls-7" points="1464.91 2312.9 1477.88 2395 669.81 1807.38 704.37 1759.84 1464.91 2312.9"/><polygon class="cls-8" points="652.5 1431.44 617.94 1478.98 0 1029.62 82.1 1016.65 652.5 1431.44"/><rect class="cls-9" x="930.93" y="2147.4" width="235.09" height="235.09" transform="translate(-1579.88 1249.8) rotate(-53.98)"/><rect class="cls-10" x="1069.19" y="1957.27" width="235.09" height="235.09" transform="translate(-1369.16 1283.31) rotate(-53.98)"/><rect class="cls-11" x="1155.59" y="1438.74" width="235.09" height="235.09" transform="translate(1207.61 3032.68) rotate(-143.98)"/><polygon class="cls-12" points="1067.3 861.04 929.03 1051.17 738.9 912.91 1067.3 861.04"/><polygon class="cls-13" points="1119.17 1189.44 1257.43 999.3 1309.3 1327.7 1119.17 1189.44"/><rect class="cls-14" x="1207.46" y="1767.13" width="235.09" height="235.09" transform="translate(3448.64 1390.45) rotate(126.02)"/><rect class="cls-15" x="1311.2" y="2423.93" width="235.09" height="235.09" transform="translate(909.65 4906.19) rotate(-143.98)"/><rect class="cls-16" x="1121.06" y="2285.67" width="235.09" height="235.09" transform="translate(647.06 4544.27) rotate(-143.98)"/><rect class="cls-6" x="688.93" y="1680.74" width="235.09" height="235.09" transform="translate(221.19 3195.95) rotate(-143.98)"/><rect class="cls-17" x="498.79" y="1542.48" width="235.09" height="235.09" transform="translate(-41.4 2834.04) rotate(-143.98)"/><polygon class="cls-11" points="410.5 964.78 272.23 1154.91 82.1 1016.65 410.5 964.78"/><rect class="cls-18" x="510.03" y="1507.91" width="117.55" height="235.09" transform="translate(-107.05 2743.56) rotate(-143.98)"/><rect class="cls-19" x="1261.89" y="1473.3" width="117.55" height="235.09" transform="translate(1008.28 -1003.54) rotate(36.02)"/><rect class="cls-20" x="1231.67" y="1814.67" width="117.55" height="235.09" transform="translate(3432.19 1493.9) rotate(126.02)"/><rect class="cls-21" x="1037.24" y="2181.97" width="117.55" height="235.09" transform="translate(1382.1 -735.89) rotate(36.02)"/><rect class="cls-22" x="1417.51" y="2458.5" width="117.55" height="235.09" transform="translate(1617.45 -906.66) rotate(36.02)"/><polygon class="cls-23" points="2505.77 1252.07 2537.85 1270.42 2702.99 981.75 2652.57 995.48 2505.77 1252.07"/><polygon class="cls-6" points="2597.07 1985.46 2670.47 1857.17 2542.17 1783.77 2597.07 1985.46"/><polygon class="cls-24" points="2597.07 1985.46 2610.8 2035.89 2922.74 1490.62 2890.67 1472.27 2597.07 1985.46"/><polygon class="cls-25" points="2835.77 1270.57 2867.84 1288.92 3106.39 871.95 3055.96 885.68 2835.77 1270.57"/><rect class="cls-9" x="2895.82" y="1956.86" width="147.81" height="147.81" transform="matrix(-0.87, -0.5, 0.5, -0.87, 4359.1, 4737.1)"/><rect class="cls-10" x="2767.52" y="1883.46" width="147.81" height="147.81" transform="translate(4155.88 4536.28) rotate(-150.23)"/><rect class="cls-11" x="2584.32" y="1608.36" width="147.81" height="147.81" transform="translate(-301.88 2623.18) rotate(-60.23)"/><polygon class="cls-12" points="2450.87 1050.38 2579.17 1123.78 2652.57 995.48 2450.87 1050.38"/><polygon class="cls-13" points="2505.77 1252.07 2377.47 1178.67 2432.37 1380.37 2505.77 1252.07"/><rect class="cls-14" x="2639.22" y="1810.06" width="147.81" height="147.81" transform="translate(1113.77 -1629.61) rotate(29.77)"/><rect class="cls-15" x="2749.02" y="2213.45" width="147.81" height="147.81" transform="translate(-744.19 3070.75) rotate(-60.23)"/><rect class="cls-16" x="2822.42" y="2085.16" width="147.81" height="147.81" transform="translate(-595.87 3069.88) rotate(-60.23)"/><rect class="cls-6" x="2914.32" y="1626.86" width="147.81" height="147.81" transform="translate(-151.81 2918.93) rotate(-60.23)"/><rect class="cls-17" x="2987.71" y="1498.56" width="147.81" height="147.81" transform="translate(-3.5 2918.05) rotate(-60.23)"/><polygon class="cls-11" points="2854.27 940.58 2982.56 1013.98 3055.96 885.68 2854.27 940.58"/><rect class="cls-26" x="3043.02" y="1466.49" width="73.91" height="147.81" transform="translate(33.58 2917.82) rotate(-60.23)"/><rect class="cls-27" x="2602.92" y="1640.44" width="73.91" height="147.81" transform="translate(5258.9 -256.8) rotate(119.77)"/><rect class="cls-28" x="2708.25" y="1828.41" width="73.91" height="147.81" transform="translate(1127.12 -1643.12) rotate(29.77)"/><rect class="cls-29" x="2914.42" y="1988.93" width="73.91" height="147.81" transform="translate(6027.57 -5.63) rotate(119.77)"/><rect class="cls-30" x="2767.62" y="2245.53" width="73.91" height="147.81" transform="translate(6030.61 505.81) rotate(119.77)"/></g></g></svg>